<mxfile host="app.diagrams.net" agent="Mozilla/5.0 (X11; Linux x86_64; rv:142.0) Gecko/20100101 Firefox/142.0" version="28.2.3">
  <diagram name="Page-1" id="jFnBSgPxiYrpuy12HcsO">
    <mxGraphModel dx="654" dy="384" grid="1" gridSize="10" guides="1" tooltips="1" connect="1" arrows="1" fold="1" page="1" pageScale="1" pageWidth="850" pageHeight="1100" math="0" shadow="0">
      <root>
        <mxCell id="0" />
        <mxCell id="1" parent="0" />
        <mxCell id="7MpUpAbFVjVtyC0-ilvA-1" value="&lt;div&gt;Dependencies&lt;/div&gt;" style="ellipse;whiteSpace=wrap;html=1;" vertex="1" parent="1">
          <mxGeometry x="40" y="10" width="120" height="80" as="geometry" />
        </mxCell>
        <mxCell id="7MpUpAbFVjVtyC0-ilvA-212" value="" style="whiteSpace=wrap;html=1;aspect=fixed;fillColor=none;" vertex="1" parent="1">
          <mxGeometry x="240" y="150" width="440" height="440" as="geometry" />
        </mxCell>
        <mxCell id="7MpUpAbFVjVtyC0-ilvA-213" value="&lt;div&gt;Things to Implement&lt;/div&gt;&lt;div&gt;&lt;br&gt;&lt;/div&gt;" style="text;html=1;align=center;verticalAlign=middle;whiteSpace=wrap;rounded=0;" vertex="1" parent="1">
          <mxGeometry x="380" y="120" width="130" height="50" as="geometry" />
        </mxCell>
        <mxCell id="7MpUpAbFVjVtyC0-ilvA-216" style="edgeStyle=orthogonalEdgeStyle;rounded=0;orthogonalLoop=1;jettySize=auto;html=1;exitX=0.5;exitY=1;exitDx=0;exitDy=0;" edge="1" parent="1" source="7MpUpAbFVjVtyC0-ilvA-214" target="7MpUpAbFVjVtyC0-ilvA-215">
          <mxGeometry relative="1" as="geometry" />
        </mxCell>
        <mxCell id="7MpUpAbFVjVtyC0-ilvA-214" value="Zombie AI" style="rounded=1;whiteSpace=wrap;html=1;" vertex="1" parent="1">
          <mxGeometry x="250" y="170" width="100" height="40" as="geometry" />
        </mxCell>
        <mxCell id="7MpUpAbFVjVtyC0-ilvA-215" value="" style="rounded=0;whiteSpace=wrap;html=1;" vertex="1" parent="1">
          <mxGeometry x="255" y="280" width="90" height="50" as="geometry" />
        </mxCell>
      </root>
    </mxGraphModel>
  </diagram>
</mxfile>
